# 3ds Max Wavefront OBJ Exporter v0.97b - (c)2007 guruware
# File Created: 20.06.2013 23:32:30

#
# object Box001
#

v  -5.000000 0.000000 10.000000
v  -5.000000 0.000000 -10.000000
v  5.000000 0.000000 -10.000000
v  5.000000 0.000000 10.000000
v  -5.000000 5.000000 10.000000
v  5.000000 5.000000 10.000000
v  5.000000 5.000000 -10.000000
v  -5.000000 5.000000 -10.000000
v  -0.065500 -2.500000 17.500000
v  0.065500 -2.500000 17.500000
v  45.000000 -0.322200 5.000000
v  47.500000 -0.322200 -2.500000
v  47.500000 0.322200 -2.500000
v  45.000000 0.322200 5.000000
v  10.030000 7.500000 -30.000000
v  -10.030000 7.500000 -30.000000
v  -47.500000 -0.322200 -2.500000
v  -45.000000 -0.322200 5.000000
v  -45.000000 0.322200 5.000000
v  -47.500000 0.322200 -2.500000
v  20.000000 6.396500 2.500000
v  22.500000 6.396500 12.500000
v  22.500000 8.603500 12.500000
v  20.000000 8.603500 2.500000
v  -22.500000 6.387200 12.500000
v  -20.000000 6.387200 2.500000
v  -20.000000 8.612800 2.500000
v  -22.500000 8.612800 12.500000
# 28 vertices

vn 0.000000 -1.000000 -0.000000
vn 0.000000 -1.000000 -0.000000
vn 0.000000 -1.000000 -0.000000
vn 0.000000 -1.000000 -0.000000
vn 0.000000 -1.000000 -0.000000
vn 0.000000 -1.000000 -0.000000
vn 0.000000 1.000000 -0.000000
vn 0.000000 1.000000 -0.000000
vn 0.000000 1.000000 -0.000000
vn 0.000000 1.000000 -0.000000
vn 0.000000 1.000000 -0.000000
vn 0.000000 1.000000 -0.000000
vn 1.000000 0.000000 -0.000000
vn 1.000000 0.000000 -0.000000
vn 1.000000 0.000000 -0.000000
vn 1.000000 0.000000 -0.000000
vn 1.000000 0.000000 -0.000000
vn 1.000000 0.000000 -0.000000
vn 0.948700 0.000000 0.316200
vn 0.948700 0.000000 0.316200
vn 0.948700 0.000000 0.316200
vn 0.948700 0.000000 0.316200
vn 0.948700 0.000000 0.316200
vn 0.948700 0.000000 0.316200
vn 1.000000 0.000000 -0.000000
vn 1.000000 0.000000 -0.000000
vn 1.000000 0.000000 -0.000000
vn 1.000000 0.000000 -0.000000
vn 1.000000 0.000000 -0.000000
vn 1.000000 0.000000 -0.000000
vn -0.948700 0.000000 0.316200
vn -0.948700 0.000000 0.316200
vn -0.948700 0.000000 0.316200
vn -0.948700 0.000000 0.316200
vn -0.948700 0.000000 0.316200
vn -0.948700 0.000000 0.316200
vn 0.000000 -0.948700 -0.316200
vn 0.000000 -0.948700 -0.316200
vn 0.000000 -0.948700 -0.316200
vn 0.000000 -0.948700 -0.316200
vn 0.000000 -0.948700 -0.316200
vn 0.000000 -0.948700 -0.316200
vn 0.000000 0.707100 0.707100
vn 0.000000 0.707100 0.707100
vn 0.000000 0.707100 0.707100
vn 0.000000 0.707100 0.707100
vn 0.000000 0.707100 0.707100
vn 0.000000 0.707100 0.707100
vn 0.835400 0.000000 0.549600
vn 0.835400 0.000000 0.549600
vn 0.835400 0.000000 0.549600
vn 0.000000 0.000000 -0.000000
vn 0.000000 0.000000 -0.000000
vn 0.000000 0.000000 -0.000000
vn -0.835400 0.000000 0.549600
vn -0.835400 0.000000 0.549600
vn -0.835400 0.000000 0.549600
vn 0.000000 0.000000 -0.000000
vn 0.000000 0.000000 -0.000000
vn 0.000000 0.000000 -0.000000
vn 0.000000 -0.936300 -0.351100
vn 0.000000 -0.936300 -0.351100
vn 0.000000 -0.936300 -0.351100
vn 0.000000 -0.936300 -0.351100
vn 0.000000 -0.936300 -0.351100
vn 0.000000 -0.936300 -0.351100
vn 0.000000 0.992300 0.124000
vn 0.000000 0.992300 0.124000
vn 0.000000 0.992300 0.124000
vn 0.000000 0.992300 0.124000
vn 0.000000 0.992300 0.124000
vn 0.000000 0.992300 0.124000
vn 0.969800 0.000000 0.243900
vn 0.969800 0.000000 0.243900
vn 0.969800 0.000000 0.243900
vn 0.000000 0.000000 -0.000000
vn 0.000000 0.000000 -0.000000
vn 0.000000 0.000000 -0.000000
vn -0.969800 0.000000 0.243900
vn -0.969800 0.000000 0.243900
vn -0.969800 0.000000 0.243900
vn 0.000000 0.000000 -0.000000
vn 0.000000 0.000000 -0.000000
vn 0.000000 0.000000 -0.000000
vn 0.392300 -0.919900 -0.000000
vn 0.392300 -0.919900 -0.000000
vn 0.392300 -0.919900 -0.000000
vn 0.353100 -0.931400 -0.088300
vn 0.353100 -0.931400 -0.088300
vn 0.353100 -0.931400 -0.088300
vn -0.201700 0.979500 -0.000000
vn -0.201700 0.979500 -0.000000
vn -0.201700 0.979500 -0.000000
vn -0.289600 0.954400 0.072400
vn -0.289600 0.954400 0.072400
vn -0.289600 0.954400 0.072400
vn 0.640200 0.000000 -0.768200
vn 0.640200 0.000000 -0.768200
vn 0.640200 0.000000 -0.768200
vn 0.640200 0.000000 -0.768200
vn 0.640200 0.000000 -0.768200
vn 0.640200 0.000000 -0.768200
vn -0.141400 0.000000 0.989900
vn -0.141400 0.000000 0.989900
vn -0.141400 0.000000 0.989900
vn -0.141400 0.000000 0.989900
vn -0.141400 0.000000 0.989900
vn -0.141400 0.000000 0.989900
vn -0.227200 -0.972200 0.056800
vn -0.227200 -0.972200 0.056800
vn -0.227200 -0.972200 0.056800
vn -0.316700 -0.942600 -0.105600
vn -0.316700 -0.942600 -0.105600
vn -0.316700 -0.942600 -0.105600
vn -0.178900 0.000000 -0.983900
vn -0.178900 0.000000 -0.983900
vn -0.178900 0.000000 -0.983900
vn -0.178900 0.000000 -0.983900
vn -0.178900 0.000000 -0.983900
vn -0.178900 0.000000 -0.983900
vn 0.320700 0.943800 -0.080200
vn 0.320700 0.943800 -0.080200
vn 0.320700 0.943800 -0.080200
vn 0.303700 0.947400 0.101200
vn 0.303700 0.947400 0.101200
vn 0.303700 0.947400 0.101200
vn 0.316200 0.000000 0.948700
vn 0.316200 0.000000 0.948700
vn 0.316200 0.000000 0.948700
vn 0.316200 0.000000 0.948700
vn 0.316200 0.000000 0.948700
vn 0.316200 0.000000 0.948700
vn -0.342900 -0.939400 -0.000000
vn -0.342900 -0.939400 -0.000000
vn -0.342900 -0.939400 -0.000000
vn -0.470400 -0.874600 -0.117600
vn -0.470400 -0.874600 -0.117600
vn -0.470400 -0.874600 -0.117600
vn 0.234200 0.972200 -0.000000
vn 0.234200 0.972200 -0.000000
vn 0.234200 0.972200 -0.000000
vn 0.209100 0.976500 0.052300
vn 0.209100 0.976500 0.052300
vn 0.209100 0.976500 0.052300
vn 0.141400 0.000000 0.989900
vn 0.141400 0.000000 0.989900
vn 0.141400 0.000000 0.989900
vn 0.141400 0.000000 0.989900
vn 0.141400 0.000000 0.989900
vn 0.141400 0.000000 0.989900
vn -0.640200 0.000000 -0.768200
vn -0.640200 0.000000 -0.768200
vn -0.640200 0.000000 -0.768200
vn -0.640200 0.000000 -0.768200
vn -0.640200 0.000000 -0.768200
vn -0.640200 0.000000 -0.768200
vn 0.264800 -0.962000 0.066200
vn 0.264800 -0.962000 0.066200
vn 0.264800 -0.962000 0.066200
vn 0.250500 -0.964500 -0.083500
vn 0.250500 -0.964500 -0.083500
vn 0.250500 -0.964500 -0.083500
vn -0.316200 0.000000 0.948700
vn -0.316200 0.000000 0.948700
vn -0.316200 0.000000 0.948700
vn -0.316200 0.000000 0.948700
vn -0.316200 0.000000 0.948700
vn -0.316200 0.000000 0.948700
vn -0.276400 0.958500 -0.069100
vn -0.276400 0.958500 -0.069100
vn -0.276400 0.958500 -0.069100
vn -0.379900 0.916300 0.126600
vn -0.379900 0.916300 0.126600
vn -0.379900 0.916300 0.126600
vn 0.178900 0.000000 -0.983900
vn 0.178900 0.000000 -0.983900
vn 0.178900 0.000000 -0.983900
vn 0.178900 0.000000 -0.983900
vn 0.178900 0.000000 -0.983900
vn 0.178900 0.000000 -0.983900
# 180 vertex normals

vt 1.000000 0.000000 0.000000
vt 1.000000 1.000000 0.000000
vt 0.000000 1.000000 0.000000
vt 0.000000 0.000000 0.000000
# 4 texture coords

g Box001
s 2
f -28/-4/-180 -27/-3/-179 -26/-2/-178 
f -26/-2/-177 -25/-1/-176 -28/-4/-175 
s 4
f -24/-1/-174 -23/-4/-173 -22/-3/-172 
f -22/-3/-171 -21/-2/-170 -24/-1/-169 
s 8
f -20/-1/-168 -19/-4/-167 -19/-3/-166 
f -19/-3/-165 -20/-2/-164 -20/-1/-163 
s 16
f -18/-1/-162 -17/-4/-161 -16/-3/-160 
f -16/-3/-159 -15/-2/-158 -18/-1/-157 
s 32
f -14/-1/-156 -13/-4/-155 -13/-3/-154 
f -13/-3/-153 -14/-2/-152 -14/-1/-151 
s 64
f -12/-1/-150 -11/-4/-149 -10/-3/-148 
f -10/-3/-147 -9/-2/-146 -12/-1/-145 
s off
f -28/-1/-144 -25/-4/-143 -19/-4/-142 
f -19/-4/-141 -20/-1/-140 -28/-1/-139 
f -23/-3/-138 -24/-2/-137 -20/-2/-136 
f -20/-2/-135 -19/-3/-134 -23/-3/-133 
f -25/-4/-132 -23/-3/-131 -19/-3/-130 
f -19/-3/-129 -19/-4/-128 -25/-4/-127 
f -24/-2/-126 -28/-1/-125 -20/-1/-124 
f -20/-1/-123 -20/-2/-122 -24/-2/-121 
f -26/-1/-120 -27/-4/-119 -13/-4/-118 
f -13/-4/-117 -14/-1/-116 -26/-1/-115 
f -21/-3/-114 -22/-2/-113 -14/-2/-112 
f -14/-2/-111 -13/-3/-110 -21/-3/-109 
f -22/-2/-108 -26/-1/-107 -14/-1/-106 
f -14/-1/-105 -14/-2/-104 -22/-2/-103 
f -27/-4/-102 -21/-3/-101 -13/-3/-100 
f -13/-3/-99 -13/-4/-98 -27/-4/-97 
f -25/-1/-96 -26/-4/-95 -8/-4/-94 
f -8/-4/-93 -7/-1/-92 -25/-1/-91 
f -22/-3/-90 -23/-2/-89 -6/-2/-88 
f -6/-2/-87 -5/-3/-86 -22/-3/-85 
f -26/-4/-84 -22/-3/-83 -5/-3/-82 
f -5/-3/-81 -8/-4/-80 -26/-4/-79 
f -23/-2/-78 -25/-1/-77 -7/-1/-76 
f -7/-1/-75 -6/-2/-74 -23/-2/-73 
f -7/-1/-72 -8/-4/-71 -17/-4/-70 
f -17/-4/-69 -18/-1/-68 -7/-1/-67 
f -8/-4/-66 -5/-3/-65 -16/-3/-64 
f -16/-3/-63 -17/-4/-62 -8/-4/-61 
f -5/-3/-60 -6/-2/-59 -15/-2/-58 
f -15/-2/-57 -16/-3/-56 -5/-3/-55 
f -6/-2/-54 -7/-1/-53 -18/-1/-52 
f -18/-1/-51 -15/-2/-50 -6/-2/-49 
f -27/-1/-48 -28/-4/-47 -4/-4/-46 
f -4/-4/-45 -3/-1/-44 -27/-1/-43 
f -24/-3/-42 -21/-2/-41 -2/-2/-40 
f -2/-2/-39 -1/-3/-38 -24/-3/-37 
f -28/-4/-36 -24/-3/-35 -1/-3/-34 
f -1/-3/-33 -4/-4/-32 -28/-4/-31 
f -21/-2/-30 -27/-1/-29 -3/-1/-28 
f -3/-1/-27 -2/-2/-26 -21/-2/-25 
f -3/-1/-24 -4/-4/-23 -11/-4/-22 
f -11/-4/-21 -12/-1/-20 -3/-1/-19 
f -4/-4/-18 -1/-3/-17 -10/-3/-16 
f -10/-3/-15 -11/-4/-14 -4/-4/-13 
f -1/-3/-12 -2/-2/-11 -9/-2/-10 
f -9/-2/-9 -10/-3/-8 -1/-3/-7 
f -2/-2/-6 -3/-1/-5 -12/-1/-4 
f -12/-1/-3 -9/-2/-2 -2/-2/-1 
# 0 polygons - 60 triangles

