# 3ds Max Wavefront OBJ Exporter v0.97b - (c)2007 guruware
# File Created: 20.06.2013 22:19:26

#
# object Box001
#

v  -5.0000 0.0000 10.0000
v  -5.0000 0.0000 -10.0000
v  5.0000 0.0000 -10.0000
v  5.0000 0.0000 10.0000
v  -5.0000 5.0000 10.0000
v  5.0000 5.0000 10.0000
v  5.0000 5.0000 -10.0000
v  -5.0000 5.0000 -10.0000
v  -0.0655 -2.5000 17.5000
v  0.0655 -2.5000 17.5000
v  45.0000 -0.3222 5.0000
v  47.5000 -0.3222 -2.5000
v  47.5000 0.3222 -2.5000
v  45.0000 0.3222 5.0000
v  10.0300 7.5000 -30.0000
v  -10.0300 7.5000 -30.0000
v  -47.5000 -0.3222 -2.5000
v  -45.0000 -0.3222 5.0000
v  -45.0000 0.3222 5.0000
v  -47.5000 0.3222 -2.5000
v  20.0000 6.3965 2.5000
v  22.5000 6.3965 12.5000
v  22.5000 8.6035 12.5000
v  20.0000 8.6035 2.5000
v  -22.5000 6.3872 12.5000
v  -20.0000 6.3872 2.5000
v  -20.0000 8.6128 2.5000
v  -22.5000 8.6128 12.5000
# 28 vertices

vn 0.0000 -1.0000 -0.0000
vn 0.0000 1.0000 -0.0000
vn 1.0000 0.0000 -0.0000
vn 0.9487 0.0000 0.3162
vn -0.9487 0.0000 0.3162
vn 0.0000 -0.9487 -0.3162
vn 0.0000 0.7071 0.7071
vn 0.8354 0.0000 0.5496
vn -0.8354 0.0000 0.5496
vn 0.0000 -0.9363 -0.3511
vn 0.0000 0.9923 0.1240
vn 0.9698 0.0000 0.2439
vn -0.9698 0.0000 0.2439
vn 0.3787 -0.9250 -0.0316
vn -0.2247 0.9743 0.0187
vn 0.6402 0.0000 -0.7682
vn -0.1414 0.0000 0.9899
vn -0.2595 -0.9657 -0.0000
vn -0.1789 0.0000 -0.9839
vn 0.3144 0.9493 -0.0000
vn 0.3162 0.0000 0.9487
vn -0.3429 -0.9394 -0.0000
vn -0.4704 -0.8746 -0.1176
vn 0.2342 0.9722 -0.0000
vn 0.2091 0.9765 0.0523
vn 0.1414 0.0000 0.9899
vn -0.6402 0.0000 -0.7682
vn 0.2592 -0.9658 -0.0000
vn -0.3162 0.0000 0.9487
vn -0.3148 0.9492 -0.0000
vn 0.1789 0.0000 -0.9839
# 31 vertex normals

g Box001
s 2
f 1//1 2//1 3//1 4//1 
s 4
f 5//2 6//2 7//2 8//2 
s 8
f 9//3 10//3 10//3 9//3 
s 16
f 11//4 12//4 13//4 14//4 
s 32
f 15//3 16//3 16//3 15//3 
s 64
f 17//5 18//5 19//5 20//5 
s off
f 1//6 4//6 10//6 
f 10//6 9//6 1//6 
f 6//7 5//7 9//7 
f 9//7 10//7 6//7 
f 4//8 6//8 10//8 
f 10//3 10//3 4//3 
f 5//9 1//9 9//9 
f 9//3 9//3 5//3 
f 3//10 2//10 16//10 
f 16//10 15//10 3//10 
f 8//11 7//11 15//11 
f 15//11 16//11 8//11 
f 7//12 3//12 15//12 
f 15//3 15//3 7//3 
f 2//13 8//13 16//13 
f 16//3 16//3 2//3 
f 4//14 3//14 21//14 22//14 
f 7//15 6//15 23//15 24//15 
f 3//16 7//16 24//16 
f 24//16 21//16 3//16 
f 6//17 4//17 22//17 
f 22//17 23//17 6//17 
f 22//18 21//18 12//18 11//18 
f 21//19 24//19 13//19 12//19 
f 24//20 23//20 14//20 13//20 
f 23//21 22//21 11//21 14//21 
f 2//22 1//22 25//22 
f 25//23 26//23 2//23 
f 5//24 8//24 27//24 
f 27//25 28//25 5//25 
f 1//26 5//26 28//26 25//26 
f 8//27 2//27 26//27 27//27 
f 26//28 25//28 18//28 17//28 
f 25//29 28//29 19//29 18//29 
f 28//30 27//30 20//30 19//30 
f 27//31 26//31 17//31 20//31 
# 18 polygons - 24 triangles

