# 3ds Max Wavefront OBJ Exporter v0.97b - (c)2007 guruware

g default
v  -5.0000 0.0000 10.0000
v  -5.0000 0.0000 -10.0000
v  5.0000 0.0000 -10.0000
v  5.0000 0.0000 10.0000
v  -5.0000 5.0000 10.0000
v  5.0000 5.0000 10.0000
v  5.0000 5.0000 -10.0000
v  -5.0000 5.0000 -10.0000
v  -0.0655 -2.5000 17.5000
v  0.0655 -2.5000 17.5000
v  45.0000 -0.3222 5.0000
v  47.5000 -0.3222 -2.5000
v  47.5000 0.3222 -2.5000
v  45.0000 0.3222 5.0000
v  10.0300 7.5000 -30.0000
v  -10.0300 7.5000 -30.0000
v  -47.5000 -0.3222 -2.5000
v  -45.0000 -0.3222 5.0000
v  -45.0000 0.3222 5.0000
v  -47.5000 0.3222 -2.5000
v  20.0000 6.3965 2.5000
v  22.5000 6.3965 12.5000
v  22.5000 8.6035 12.5000
v  20.0000 8.6035 2.5000
v  -22.5000 6.3872 12.5000
v  -20.0000 6.3872 2.5000
v  -20.0000 8.6128 2.5000
v  -22.5000 8.6128 12.5000
vt 1.0000 0.0000 0.0000
vt 1.0000 1.0000 0.0000
vt 0.0000 1.0000 0.0000
vt 0.0000 0.0000 0.0000
vn 0.0000 -1.0000 -0.0000
vn 0.0000 1.0000 -0.0000
vn 1.0000 0.0000 -0.0000
vn 0.9487 0.0000 0.3162
vn -0.9487 0.0000 0.3162
vn 0.0000 -0.9487 -0.3162
vn 0.0000 0.7071 0.7071
vn 0.8354 0.0000 0.5496
vn -0.8354 0.0000 0.5496
vn 0.0000 -0.9363 -0.3511
vn 0.0000 0.9923 0.1240
vn 0.9698 0.0000 0.2439
vn -0.9698 0.0000 0.2439
vn 0.3787 -0.9250 -0.0316
vn -0.2247 0.9743 0.0187
vn 0.6402 0.0000 -0.7682
vn -0.1414 0.0000 0.9899
vn -0.2595 -0.9657 -0.0000
vn -0.1789 0.0000 -0.9839
vn 0.3144 0.9493 -0.0000
vn 0.3162 0.0000 0.9487
vn -0.3782 -0.9252 -0.0315
vn 0.2252 0.9741 0.0188
vn 0.1414 0.0000 0.9899
vn -0.6402 0.0000 -0.7682
vn 0.2592 -0.9658 -0.0000
vn -0.3162 0.0000 0.9487
vn -0.3148 0.9492 -0.0000
vn 0.1789 0.0000 -0.9839
s 1
g Gull
f 1/1/1 2/2/1 3/3/1 4/4/1 
f 5/4/2 6/1/2 7/2/2 8/3/2 
f 9/4/3 10/1/3 10/2/3 9/3/3 
f 11/4/4 12/1/4 13/2/4 14/3/4 
f 15/4/3 16/1/3 16/2/3 15/3/3 
f 17/4/5 18/1/5 19/2/5 20/3/5 
f 1/4/6 4/1/6 10/1/6 9/4/6 
f 6/2/7 5/3/7 9/3/7 10/2/7 
f 4/1/8 6/2/8 10/2/8 10/1/8 
f 5/3/9 1/4/9 9/4/9 9/3/9 
f 3/4/10 2/1/10 16/1/10 15/4/10 
f 8/2/11 7/3/11 15/3/11 16/2/11 
f 7/3/12 3/4/12 15/4/12 15/3/12 
f 2/1/13 8/2/13 16/2/13 16/1/13 
f 4/4/14 3/1/14 21/1/14 22/4/14 
f 7/2/15 6/3/15 23/3/15 24/2/15 
f 3/1/16 7/2/16 24/2/16 21/1/16 
f 6/3/17 4/4/17 22/4/17 23/3/17 
f 22/4/18 21/1/18 12/1/18 11/4/18 
f 21/1/19 24/2/19 13/2/19 12/1/19 
f 24/2/20 23/3/20 14/3/20 13/2/20 
f 23/3/21 22/4/21 11/4/21 14/3/21 
f 2/4/22 1/1/22 25/1/22 26/4/22 
f 5/2/23 8/3/23 27/3/23 28/2/23 
f 1/1/24 5/2/24 28/2/24 25/1/24 
f 8/3/25 2/4/25 26/4/25 27/3/25 
f 26/4/26 25/1/26 18/1/26 17/4/26 
f 25/1/27 28/2/27 19/2/27 18/1/27 
f 28/2/28 27/3/28 20/3/28 19/2/28 
f 27/3/29 26/4/29 17/4/29 20/3/29 